<?xml version="1.0" encoding="UTF-8" ?>
<!DOCTYPE svg PUBLIC "-//W3C//DTD SVG 1.1//EN" "http://www.w3.org/Graphics/SVG/1.1/DTD/svg11.dtd">
<svg width="826pt" height="826pt" viewBox="0 0 826 826" version="1.1" xmlns="http://www.w3.org/2000/svg">
<g id="#6dd088ff">
<path fill="#6dd088" opacity="1.00" d=" M 389.54 82.84 C 442.90 79.04 497.18 88.27 546.14 109.89 C 609.05 137.43 662.84 185.17 697.80 244.26 C 719.34 280.48 733.82 320.89 740.17 362.55 C 747.18 408.58 744.53 456.09 732.17 500.99 C 714.16 566.92 674.92 626.73 621.87 669.77 C 591.45 694.56 556.60 713.92 519.43 726.51 C 439.33 753.88 348.73 748.95 272.23 712.64 C 207.91 682.51 153.89 631.05 120.64 568.29 C 98.72 527.21 85.70 481.42 82.74 434.95 C 79.77 389.98 85.94 344.40 101.11 301.95 C 124.10 237.02 168.09 179.83 224.77 140.72 C 273.16 107.08 330.74 86.84 389.54 82.84 M 468.18 172.31 C 447.04 174.73 426.28 181.36 407.77 191.87 C 364.93 214.48 333.46 257.10 323.57 304.43 C 322.39 309.42 322.19 314.60 320.93 319.57 C 320.58 319.96 319.87 320.73 319.52 321.12 C 310.15 322.36 300.79 323.93 291.79 326.90 C 276.84 330.78 262.93 337.79 249.85 345.87 C 235.82 354.74 223.12 365.67 212.11 378.08 C 186.43 408.48 170.84 447.97 171.35 487.96 C 172.09 514.80 178.55 541.58 190.70 565.57 C 196.86 577.15 204.48 587.95 213.46 597.53 C 231.99 617.36 254.00 634.85 279.88 643.88 C 291.76 648.67 304.48 650.59 317.00 652.96 C 318.98 653.36 320.99 653.61 323.02 653.72 C 334.69 654.22 346.42 654.73 358.08 653.68 C 404.17 648.00 447.57 622.41 474.52 584.52 C 489.20 564.29 499.24 540.67 503.46 516.02 C 503.96 512.76 503.68 509.33 504.92 506.23 C 507.05 503.47 511.08 504.23 514.13 503.64 C 538.31 500.04 561.41 490.32 581.54 476.54 C 606.44 459.22 627.27 435.51 639.36 407.55 C 650.61 383.84 656.13 357.28 654.22 331.06 C 653.19 308.26 647.08 285.87 637.77 265.11 C 624.34 237.00 601.45 214.53 576.18 196.87 C 562.79 188.14 548.02 181.61 532.55 177.62 C 519.26 174.50 505.73 171.58 492.00 172.03 C 484.06 171.20 476.10 171.46 468.18 172.31 Z" />
<path fill="#6dd088" opacity="1.00" d=" M 417.56 228.50 C 448.24 208.48 487.71 203.05 522.83 213.18 C 548.33 219.66 570.67 235.52 587.70 255.30 C 598.34 267.99 606.64 282.76 611.54 298.60 C 613.22 305.64 616.09 312.55 615.98 319.90 C 593.32 320.42 570.64 319.92 547.97 320.07 C 490.65 320.06 433.32 320.07 375.99 320.07 C 370.12 319.76 364.14 320.76 358.37 319.41 C 363.69 282.50 385.69 248.03 417.56 228.50 Z" />
<path fill="#6dd088" opacity="1.00" d=" M 356.85 359.98 C 356.60 358.20 358.26 356.68 360.00 356.86 C 395.73 356.88 431.46 356.92 467.18 356.85 C 468.01 357.24 468.78 357.77 469.47 358.44 C 468.72 373.93 469.32 389.48 469.14 405.00 C 469.00 425.90 469.54 446.84 468.93 467.73 C 468.57 467.95 467.84 468.38 467.48 468.60 C 453.99 469.14 440.48 468.46 426.99 468.81 C 405.32 468.59 383.65 468.94 361.98 468.67 C 360.20 468.69 358.44 468.45 356.71 468.12 C 356.95 432.08 356.79 396.03 356.85 359.98 Z" />
<path fill="#6dd088" opacity="1.00" d=" M 506.90 356.72 C 532.27 357.13 557.64 356.78 583.01 356.92 C 593.78 356.71 604.55 357.17 615.31 356.76 C 616.11 358.40 616.36 360.23 615.88 362.03 C 612.34 379.56 605.46 396.48 595.34 411.27 C 589.76 420.42 582.04 427.98 574.43 435.44 C 556.28 452.05 533.17 462.80 509.02 467.07 C 507.20 467.68 505.51 465.85 505.90 464.09 C 505.90 429.33 505.99 394.57 505.92 359.82 C 505.98 358.72 506.30 357.68 506.90 356.72 Z" />
<path fill="#6dd088" opacity="1.00" d=" M 220.16 433.05 C 237.92 393.67 276.52 364.38 319.39 358.48 C 319.73 359.94 320.09 361.42 320.10 362.94 C 320.09 398.00 320.01 433.07 320.10 468.13 C 318.10 468.45 316.08 468.73 314.06 468.77 C 285.39 468.67 256.73 468.70 228.07 468.69 C 221.91 468.59 215.72 469.11 209.60 468.26 C 210.85 455.99 215.23 444.27 220.16 433.05 Z" />
<path fill="#6dd088" opacity="1.00" d=" M 209.46 506.82 C 210.91 506.36 212.37 505.79 213.92 505.83 C 297.65 506.10 381.39 505.82 465.11 505.99 C 468.01 505.85 467.47 509.10 467.13 511.00 C 462.45 535.47 451.09 558.76 433.79 576.78 C 427.71 583.75 420.22 589.26 413.01 594.98 C 395.78 606.10 376.34 614.65 355.77 616.79 C 343.07 618.84 330.13 617.82 317.44 616.22 C 300.36 613.35 283.73 607.34 269.19 597.86 C 254.07 588.43 241.25 575.59 230.76 561.26 C 226.52 553.73 221.20 546.74 218.56 538.41 C 213.92 528.40 211.81 517.53 209.46 506.82 Z" />
</g>
<g id="#ffffffff">
<path fill="#ffffff" opacity="1.00" d=" M 468.18 172.31 C 476.10 171.46 484.06 171.20 492.00 172.03 C 505.73 171.58 519.26 174.50 532.55 177.62 C 548.02 181.61 562.79 188.14 576.18 196.87 C 601.45 214.53 624.34 237.00 637.77 265.11 C 647.08 285.87 653.19 308.26 654.22 331.06 C 656.13 357.28 650.61 383.84 639.36 407.55 C 627.27 435.51 606.44 459.22 581.54 476.54 C 561.41 490.32 538.31 500.04 514.13 503.64 C 511.08 504.23 507.05 503.47 504.92 506.23 C 503.68 509.33 503.96 512.76 503.46 516.02 C 499.24 540.67 489.20 564.29 474.52 584.52 C 447.57 622.41 404.17 648.00 358.08 653.68 C 346.42 654.73 334.69 654.22 323.02 653.72 C 320.99 653.61 318.98 653.36 317.00 652.96 C 304.48 650.59 291.76 648.67 279.88 643.88 C 254.00 634.85 231.99 617.36 213.46 597.53 C 204.48 587.95 196.86 577.15 190.70 565.57 C 178.55 541.58 172.09 514.80 171.35 487.96 C 170.84 447.97 186.43 408.48 212.11 378.08 C 223.12 365.67 235.82 354.74 249.85 345.87 C 262.93 337.79 276.84 330.78 291.79 326.90 C 300.79 323.93 310.15 322.36 319.52 321.12 C 319.87 320.73 320.58 319.96 320.93 319.57 C 322.19 314.60 322.39 309.42 323.57 304.43 C 333.46 257.10 364.93 214.48 407.77 191.87 C 426.28 181.36 447.04 174.73 468.18 172.31 M 417.56 228.50 C 385.69 248.03 363.69 282.50 358.37 319.41 C 364.14 320.76 370.12 319.76 375.99 320.07 C 433.32 320.07 490.65 320.06 547.97 320.07 C 570.64 319.92 593.32 320.42 615.98 319.90 C 616.09 312.55 613.22 305.64 611.54 298.60 C 606.64 282.76 598.34 267.99 587.70 255.30 C 570.67 235.52 548.33 219.66 522.83 213.18 C 487.71 203.05 448.24 208.48 417.56 228.50 M 356.85 359.98 C 356.79 396.03 356.95 432.08 356.71 468.12 C 358.44 468.45 360.20 468.69 361.98 468.67 C 383.65 468.94 405.32 468.59 426.99 468.81 C 440.48 468.46 453.99 469.14 467.48 468.60 C 467.84 468.38 468.57 467.95 468.93 467.73 C 469.54 446.84 469.00 425.90 469.14 405.00 C 469.32 389.48 468.72 373.93 469.47 358.44 C 468.78 357.77 468.01 357.24 467.18 356.85 C 431.46 356.92 395.73 356.88 360.00 356.86 C 358.26 356.68 356.60 358.20 356.85 359.98 M 506.90 356.72 C 506.30 357.68 505.98 358.72 505.92 359.82 C 505.99 394.57 505.90 429.33 505.90 464.09 C 505.51 465.85 507.20 467.68 509.02 467.07 C 533.17 462.80 556.28 452.05 574.43 435.44 C 582.04 427.98 589.76 420.42 595.34 411.27 C 605.46 396.48 612.34 379.56 615.88 362.03 C 616.36 360.23 616.11 358.40 615.31 356.76 C 604.55 357.17 593.78 356.71 583.01 356.92 C 557.64 356.78 532.27 357.13 506.90 356.72 M 220.16 433.05 C 215.23 444.27 210.85 455.99 209.60 468.26 C 215.72 469.11 221.91 468.59 228.07 468.69 C 256.73 468.70 285.39 468.67 314.06 468.77 C 316.08 468.73 318.10 468.45 320.10 468.13 C 320.01 433.07 320.09 398.00 320.10 362.94 C 320.09 361.42 319.73 359.94 319.39 358.48 C 276.52 364.38 237.92 393.67 220.16 433.05 M 209.46 506.82 C 211.81 517.53 213.92 528.40 218.56 538.41 C 221.20 546.74 226.52 553.73 230.76 561.26 C 241.25 575.59 254.07 588.43 269.19 597.86 C 283.73 607.34 300.36 613.35 317.44 616.22 C 330.13 617.82 343.07 618.84 355.77 616.79 C 376.34 614.65 395.78 606.10 413.01 594.98 C 420.22 589.26 427.71 583.75 433.79 576.78 C 451.09 558.76 462.45 535.47 467.13 511.00 C 467.47 509.10 468.01 505.85 465.11 505.99 C 381.39 505.82 297.65 506.10 213.92 505.83 C 212.37 505.79 210.91 506.36 209.46 506.82 Z" />
</g>
</svg>
